# xmcd
#
# Track frame offsets:
# 150
# 9117
# 19348
# 27742
# 38181
# 50331
# 59923
# 70789
# 83019
# 96154
# 107776
# 119488
# 129053
# 141246
# 153525
# 164330
# 174562
# 182424
# 192636
# 203403
# 216497
# 227355
# 239074
# 248667
# 258810
#
# Disc length: 3596 seconds
#
#
# Revision: 0
# Processed by: cddbd v1.5.2PL0 Copyright (c) Steve Scherf et al.
# Submitted via: FreeRIP 2.52 
#
DISCID=5d0e0a19
DTITLE=Various Artist - It's only Rock'n'Roll - CD2
DYEAR=2008
DGENRE=Rock and Roll
TTITLE0=All shook up - Elvis Presley
TTITLE1=That'll be the day - Buddy Holly
TTITLE2=Great balls of fire - Jerry Lee Lewis
TTITLE3=Bye Bye Love - The Everly Brothers
TTITLE4=School day - Chuck Berry
TTITLE5=Little Darlin' - The Diamonds
TTITLE6=Lucille - Little Richard
TTITLE7=Reet Petite - Jackie Wilson
TTITLE8=Love is strange - Mickey and Sylvia
TTITLE9=Come go with me - The Del-Vikings
TTITLE10=Too much - Elvis Presley
TTITLE11=Oh Boy! - Buddy Holly
TTITLE12=Searchin' - The Coasters
TTITLE13=Silhouettes - The Diamonds
TTITLE14=Teen-Age Crush - Tommy Sands
TTITLE15=Not Fade away - Buddy Holly
TTITLE16=Twenty Flight Rock - Eddie Cochran
TTITLE17=Dance to the bop - Gene Vincent
TTITLE18=Little bitty pretty one - Thurston Harris and the Sharps
TTITLE19=I'm sorry - The Platters
TTITLE20=Young love - Tab Hunter
TTITLE21=Oh Baby doll - Chuck Berry
TTITLE22=Every day - Buddy Holly
TTITLE23=Love letters in the sand - Pat Boone
TTITLE24=She's got it - Little Richard
EXTD=edited by Chris
EXTT0=
EXTT1=
EXTT2=
EXTT3=
EXTT4=
EXTT5=
EXTT6=
EXTT7=
EXTT8=
EXTT9=
EXTT10=
EXTT11=
EXTT12=
EXTT13=
EXTT14=
EXTT15=
EXTT16=
EXTT17=
EXTT18=
EXTT19=
EXTT20=
EXTT21=
EXTT22=
EXTT23=
EXTT24=
PLAYORDER=
